<svg width="407" height="72" viewBox="0 0 407 72" fill="none" xmlns="http://www.w3.org/2000/svg">
<path d="M26.5867 11.2725H23.7504C23.5392 10.2165 23.157 9.2409 22.6039 8.34577C22.0607 7.44058 21.3768 6.65105 20.5521 5.97719C19.7274 5.30333 18.792 4.78033 17.746 4.4082C16.7 4.03606 15.5685 3.85 14.3515 3.85C12.4004 3.85 10.6202 4.35791 9.01093 5.37373C7.41176 6.38956 6.12941 7.88312 5.16387 9.85442C4.20839 11.8157 3.73065 14.2194 3.73065 17.0658C3.73065 19.9322 4.20839 22.346 5.16387 24.3073C6.12941 26.2685 7.41176 27.7571 9.01093 28.7729C10.6202 29.7786 12.4004 30.2815 14.3515 30.2815C15.5685 30.2815 16.7 30.0955 17.746 29.7233C18.792 29.3512 19.7274 28.8332 20.5521 28.1694C21.3768 27.4956 22.0607 26.706 22.6039 25.8008C23.157 24.8956 23.5392 23.915 23.7504 22.859H26.5867C26.3352 24.2771 25.8625 25.5997 25.1686 26.8267C24.4846 28.0437 23.6096 29.1098 22.5435 30.0251C21.4875 30.9403 20.2705 31.6544 18.8926 32.1673C17.5147 32.6803 16.001 32.9367 14.3515 32.9367C11.7567 32.9367 9.45346 32.288 7.44193 30.9906C5.4304 29.6831 3.85135 27.8425 2.70477 25.4689C1.56826 23.0953 1 20.2943 1 17.0658C1 13.8373 1.56826 11.0362 2.70477 8.66259C3.85135 6.28898 5.4304 4.45346 7.44193 3.15602C9.45346 1.84852 11.7567 1.19477 14.3515 1.19477C16.001 1.19477 17.5147 1.45124 18.8926 1.96419C20.2705 2.46707 21.4875 3.18116 22.5435 4.10647C23.6096 5.02171 24.4846 6.08783 25.1686 7.3048C25.8625 8.52178 26.3352 9.84436 26.5867 11.2725Z" fill="white"/>
<path d="M40.3874 32.9971C38.3859 32.9971 36.6157 32.4892 35.0769 31.4734C33.5481 30.4575 32.3513 29.0545 31.4863 27.2642C30.6214 25.4639 30.1889 23.387 30.1889 21.0335C30.1889 18.6599 30.6214 16.5729 31.4863 14.7726C32.3513 12.9622 33.5481 11.5542 35.0769 10.5484C36.6157 9.53257 38.3859 9.02466 40.3874 9.02466C42.3888 9.02466 44.1539 9.53257 45.6827 10.5484C47.2115 11.5642 48.4083 12.9723 49.2733 14.7726C50.1483 16.5729 50.5858 18.6599 50.5858 21.0335C50.5858 23.387 50.1533 25.4639 49.2884 27.2642C48.4234 29.0545 47.2215 30.4575 45.6827 31.4734C44.1539 32.4892 42.3888 32.9971 40.3874 32.9971ZM40.3874 30.538C41.9966 30.538 43.3594 30.1055 44.4758 29.2406C45.5922 28.3756 46.437 27.224 47.0103 25.7858C47.5937 24.3475 47.8853 22.7634 47.8853 21.0335C47.8853 19.3036 47.5937 17.7145 47.0103 16.2662C46.437 14.8179 45.5922 13.6562 44.4758 12.7812C43.3594 11.9062 41.9966 11.4687 40.3874 11.4687C38.7882 11.4687 37.4254 11.9062 36.2989 12.7812C35.1825 13.6562 34.3326 14.8179 33.7493 16.2662C33.176 17.7145 32.8894 19.3036 32.8894 21.0335C32.8894 22.7634 33.176 24.3475 33.7493 25.7858C34.3326 27.224 35.1825 28.3756 36.2989 29.2406C37.4153 30.1055 38.7781 30.538 40.3874 30.538Z" fill="white"/>
<path d="M55.2064 32.5143V9.34148H57.8163V12.9019H58.0577C58.5204 11.705 59.2898 10.7646 60.3659 10.0807C61.4522 9.38674 62.7546 9.03975 64.2733 9.03975C65.8725 9.03975 67.185 9.41691 68.2109 10.1712C69.2468 10.9155 70.0213 11.9414 70.5342 13.2489H70.7304C71.2534 11.9615 72.1032 10.9406 73.28 10.1863C74.4668 9.42194 75.905 9.03975 77.5947 9.03975C79.747 9.03975 81.4468 9.71864 82.6939 11.0764C83.9411 12.4242 84.5647 14.3955 84.5647 16.9903V32.5143H81.8793V16.9903C81.8793 15.1598 81.4116 13.787 80.4762 12.8717C79.5409 11.9565 78.3088 11.4988 76.78 11.4988C75.0099 11.4988 73.6471 12.042 72.6916 13.1282C71.7361 14.2144 71.2584 15.5923 71.2584 17.2619V32.5143H68.5126V16.7489C68.5126 15.1799 68.0751 13.9127 67.2001 12.9471C66.3251 11.9816 65.093 11.4988 63.5039 11.4988C62.4378 11.4988 61.4773 11.7603 60.6224 12.2833C59.7776 12.8063 59.1087 13.5355 58.6159 14.4709C58.1331 15.3962 57.8918 16.4623 57.8918 17.6692V32.5143H55.2064Z" fill="white"/>
<path d="M90.3997 41.2041V9.34148H93.0096V13.7618H93.3264C93.6483 13.0678 94.0908 12.3588 94.6541 11.6346C95.2173 10.9004 95.9616 10.2819 96.8869 9.77899C97.8222 9.2761 98.999 9.02466 100.417 9.02466C102.328 9.02466 103.998 9.52755 105.426 10.5333C106.864 11.529 107.98 12.927 108.775 14.7274C109.58 16.5176 109.982 18.6046 109.982 20.9882C109.982 23.382 109.58 25.479 108.775 27.2793C107.98 29.0796 106.864 30.4827 105.426 31.4884C103.998 32.4942 102.338 32.9971 100.447 32.9971C99.0493 32.9971 97.8775 32.7457 96.9321 32.2428C95.9968 31.7399 95.2374 31.1213 94.6541 30.3871C94.0808 29.6429 93.6382 28.9187 93.3264 28.2147H93.0851V41.2041H90.3997ZM93.0549 20.943C93.0549 22.8137 93.3315 24.4732 93.8846 25.9215C94.4479 27.3598 95.2525 28.4913 96.2985 29.316C97.3545 30.1307 98.6319 30.538 100.13 30.538C101.669 30.538 102.967 30.1156 104.023 29.2707C105.089 28.4158 105.899 27.2642 106.452 25.8159C107.015 24.3676 107.297 22.7433 107.297 20.943C107.297 19.1628 107.02 17.5586 106.467 16.1304C105.924 14.7022 105.119 13.5707 104.053 12.7359C102.987 11.8911 101.679 11.4687 100.13 11.4687C98.6218 11.4687 97.3394 11.876 96.2834 12.6907C95.2273 13.4953 94.4227 14.6117 93.8696 16.0399C93.3264 17.458 93.0549 19.0924 93.0549 20.943Z" fill="white"/>
<path d="M129.323 23.6586V9.34148H132.008V32.5143H129.323V28.6673H129.112C128.569 29.8541 127.709 30.8448 126.532 31.6393C125.355 32.4238 123.917 32.8161 122.217 32.8161C120.739 32.8161 119.426 32.4942 118.28 31.8505C117.133 31.1968 116.233 30.2413 115.579 28.9841C114.926 27.7269 114.599 26.183 114.599 24.3525V9.34148H117.284V24.1866C117.284 25.997 117.817 27.4553 118.883 28.5617C119.949 29.658 121.317 30.2061 122.987 30.2061C124.033 30.2061 125.039 29.9547 126.004 29.4518C126.97 28.9489 127.764 28.2147 128.388 27.2491C129.011 26.2735 129.323 25.0767 129.323 23.6586Z" fill="white"/>
<path d="M146.971 9.34148V11.6799H135.912V9.34148H146.971ZM139.367 3.78965H142.068V26.4646C142.068 27.4302 142.234 28.1895 142.566 28.7427C142.897 29.2858 143.33 29.673 143.863 29.9044C144.396 30.1256 144.964 30.2363 145.568 30.2363C145.92 30.2363 146.222 30.2162 146.473 30.1759C146.724 30.1256 146.946 30.0753 147.137 30.0251L147.71 32.454C147.449 32.5546 147.127 32.6451 146.745 32.7255C146.362 32.8161 145.89 32.8613 145.326 32.8613C144.341 32.8613 143.39 32.6451 142.475 32.2126C141.57 31.7801 140.826 31.1364 140.242 30.2815C139.659 29.4266 139.367 28.3655 139.367 27.0983V3.78965Z" fill="white"/>
<path d="M160.915 32.9971C158.752 32.9971 156.882 32.4942 155.303 31.4884C153.724 30.4726 152.502 29.0696 151.637 27.2793C150.782 25.479 150.354 23.4071 150.354 21.0637C150.354 18.7303 150.782 16.6584 151.637 14.848C152.502 13.0276 153.693 11.6045 155.212 10.5786C156.741 9.54263 158.506 9.02466 160.507 9.02466C161.765 9.02466 162.977 9.25599 164.143 9.71864C165.31 10.1712 166.356 10.8702 167.281 11.8157C168.217 12.751 168.956 13.9328 169.499 15.361C170.042 16.7791 170.314 18.4587 170.314 20.3999V21.7275H152.21V19.3589H167.568C167.568 17.8704 167.266 16.5327 166.663 15.3459C166.069 14.149 165.24 13.2036 164.173 12.5096C163.117 11.8157 161.895 11.4687 160.507 11.4687C159.039 11.4687 157.747 11.8609 156.63 12.6454C155.514 13.4299 154.639 14.4659 154.005 15.7532C153.382 17.0406 153.065 18.4487 153.055 19.9775V21.3956C153.055 23.2361 153.372 24.8454 154.005 26.2233C154.649 27.5911 155.559 28.6522 156.736 29.4065C157.913 30.1608 159.306 30.538 160.915 30.538C162.011 30.538 162.972 30.367 163.796 30.0251C164.631 29.6831 165.33 29.2255 165.893 28.6522C166.467 28.0688 166.899 27.4302 167.191 26.7362L169.74 27.566C169.388 28.5416 168.81 29.4417 168.005 30.2664C167.211 31.0912 166.215 31.755 165.018 32.2579C163.832 32.7507 162.464 32.9971 160.915 32.9971Z" fill="white"/>
<path d="M174.957 32.5143V9.34148H177.567V12.9019H177.763C178.226 11.7352 179.03 10.7948 180.177 10.0807C181.333 9.35656 182.641 8.99449 184.099 8.99449C184.321 8.99449 184.567 8.99952 184.839 9.00958C185.11 9.01963 185.336 9.02969 185.517 9.03975V11.7704C185.397 11.7503 185.186 11.7201 184.884 11.6799C184.582 11.6397 184.255 11.6195 183.903 11.6195C182.696 11.6195 181.62 11.876 180.675 12.389C179.739 12.8918 179 13.5908 178.457 14.486C177.914 15.3811 177.642 16.402 177.642 17.5485V32.5143H174.957Z" fill="white"/>
<path d="M216.834 9.34148C216.663 7.62162 215.903 6.25378 214.556 5.23795C213.208 4.22213 211.513 3.71422 209.472 3.71422C208.033 3.71422 206.766 3.96063 205.67 4.45346C204.584 4.94628 203.729 5.6302 203.105 6.50522C202.492 7.37018 202.185 8.35583 202.185 9.46217C202.185 10.2768 202.361 10.9909 202.713 11.6045C203.065 12.218 203.538 12.746 204.131 13.1885C204.734 13.621 205.398 13.9931 206.122 14.3049C206.857 14.6167 207.596 14.8782 208.34 15.0894L211.599 16.0248C212.584 16.2963 213.57 16.6433 214.556 17.0658C215.541 17.4882 216.442 18.0212 217.256 18.6649C218.081 19.2986 218.74 20.078 219.233 21.0033C219.735 21.9186 219.987 23.0199 219.987 24.3073C219.987 25.9567 219.559 27.4402 218.705 28.7578C217.85 30.0753 216.623 31.1213 215.023 31.8958C213.424 32.6602 211.508 33.0424 209.275 33.0424C207.173 33.0424 205.348 32.6954 203.799 32.0014C202.25 31.2973 201.033 30.3268 200.148 29.0897C199.263 27.8526 198.765 26.4194 198.655 24.79H201.551C201.652 26.007 202.054 27.0379 202.758 27.8828C203.462 28.7276 204.377 29.3713 205.504 29.8138C206.63 30.2463 207.887 30.4626 209.275 30.4626C210.814 30.4626 212.182 30.2061 213.379 29.6932C214.586 29.1702 215.531 28.446 216.215 27.5207C216.909 26.5853 217.256 25.4991 217.256 24.262C217.256 23.216 216.985 22.341 216.442 21.637C215.898 20.9229 215.139 20.3244 214.163 19.8417C213.198 19.3589 212.077 18.9315 210.799 18.5593L207.103 17.4731C204.679 16.7489 202.798 15.7482 201.461 14.4709C200.123 13.1936 199.454 11.5642 199.454 9.58286C199.454 7.92335 199.897 6.46499 200.782 5.20778C201.677 3.94052 202.884 2.95487 204.403 2.25083C205.931 1.53673 207.646 1.17969 209.547 1.17969C211.468 1.17969 213.168 1.53171 214.646 2.23574C216.125 2.93978 217.296 3.91034 218.161 5.14743C219.036 6.37447 219.504 7.77248 219.564 9.34148H216.834Z" fill="white"/>
<path d="M233.95 32.9971C231.948 32.9971 230.178 32.4892 228.639 31.4734C227.11 30.4575 225.914 29.0545 225.049 27.2642C224.184 25.4639 223.751 23.387 223.751 21.0335C223.751 18.6599 224.184 16.5729 225.049 14.7726C225.914 12.9622 227.11 11.5542 228.639 10.5484C230.178 9.53257 231.948 9.02466 233.95 9.02466C235.951 9.02466 237.716 9.53257 239.245 10.5484C240.774 11.5642 241.971 12.9723 242.836 14.7726C243.711 16.5729 244.148 18.6599 244.148 21.0335C244.148 23.387 243.716 25.4639 242.851 27.2642C241.986 29.0545 240.784 30.4575 239.245 31.4734C237.716 32.4892 235.951 32.9971 233.95 32.9971ZM233.95 30.538C235.559 30.538 236.922 30.1055 238.038 29.2406C239.155 28.3756 239.999 27.224 240.573 25.7858C241.156 24.3475 241.448 22.7634 241.448 21.0335C241.448 19.3036 241.156 17.7145 240.573 16.2662C239.999 14.8179 239.155 13.6562 238.038 12.7812C236.922 11.9062 235.559 11.4687 233.95 11.4687C232.351 11.4687 230.988 11.9062 229.861 12.7812C228.745 13.6562 227.895 14.8179 227.312 16.2662C226.738 17.7145 226.452 19.3036 226.452 21.0335C226.452 22.7634 226.738 24.3475 227.312 25.7858C227.895 27.224 228.745 28.3756 229.861 29.2406C230.978 30.1055 232.34 30.538 233.95 30.538Z" fill="white"/>
<path d="M257.821 32.9971C255.749 32.9971 253.943 32.4791 252.405 31.4432C250.876 30.4072 249.689 28.9891 248.844 27.1888C247.999 25.3885 247.577 23.3367 247.577 21.0335C247.577 18.7102 248.004 16.6433 248.859 14.833C249.724 13.0226 250.921 11.6045 252.45 10.5786C253.979 9.54263 255.754 9.02466 257.775 9.02466C259.324 9.02466 260.727 9.32639 261.984 9.92985C263.242 10.5233 264.278 11.3631 265.092 12.4493C265.917 13.5255 266.435 14.7827 266.646 16.2209H263.931C263.649 14.9134 262.97 13.797 261.894 12.8717C260.828 11.9364 259.47 11.4687 257.821 11.4687C256.342 11.4687 255.035 11.871 253.898 12.6756C252.762 13.4701 251.871 14.5815 251.228 16.0097C250.594 17.4278 250.277 19.0723 250.277 20.943C250.277 22.8238 250.589 24.4883 251.213 25.9366C251.836 27.3749 252.711 28.5013 253.838 29.316C254.974 30.1307 256.302 30.538 257.821 30.538C258.846 30.538 259.782 30.3469 260.627 29.9647C261.482 29.5725 262.196 29.0193 262.769 28.3052C263.352 27.5911 263.745 26.7412 263.946 25.7556H266.661C266.46 27.1536 265.962 28.4007 265.168 29.497C264.383 30.5833 263.362 31.4382 262.105 32.0617C260.858 32.6853 259.43 32.9971 257.821 32.9971Z" fill="white"/>
<path d="M271.172 32.5143V9.34148H273.873V32.5143H271.172ZM272.545 5.35865C271.992 5.35865 271.519 5.17258 271.127 4.80045C270.735 4.41826 270.539 3.96063 270.539 3.42757C270.539 2.89452 270.735 2.44193 271.127 2.06979C271.519 1.6876 271.992 1.4965 272.545 1.4965C273.098 1.4965 273.571 1.6876 273.963 2.06979C274.356 2.44193 274.552 2.89452 274.552 3.42757C274.552 3.96063 274.356 4.41826 273.963 4.80045C273.571 5.17258 273.098 5.35865 272.545 5.35865Z" fill="white"/>
<path d="M289.069 32.9971C286.907 32.9971 285.036 32.4942 283.457 31.4884C281.878 30.4726 280.656 29.0696 279.791 27.2793C278.936 25.479 278.509 23.4071 278.509 21.0637C278.509 18.7303 278.936 16.6584 279.791 14.848C280.656 13.0276 281.848 11.6045 283.366 10.5786C284.895 9.54263 286.66 9.02466 288.662 9.02466C289.919 9.02466 291.131 9.25599 292.298 9.71864C293.464 10.1712 294.51 10.8702 295.436 11.8157C296.371 12.751 297.11 13.9328 297.653 15.361C298.196 16.7791 298.468 18.4587 298.468 20.3999V21.7275H280.364V19.3589H295.722C295.722 17.8704 295.421 16.5327 294.817 15.3459C294.224 14.149 293.394 13.2036 292.328 12.5096C291.272 11.8157 290.05 11.4687 288.662 11.4687C287.193 11.4687 285.901 11.8609 284.785 12.6454C283.668 13.4299 282.793 14.4659 282.159 15.7532C281.536 17.0406 281.219 18.4487 281.209 19.9775V21.3956C281.209 23.2361 281.526 24.8454 282.159 26.2233C282.803 27.5911 283.713 28.6522 284.89 29.4065C286.067 30.1608 287.46 30.538 289.069 30.538C290.165 30.538 291.126 30.367 291.951 30.0251C292.785 29.6831 293.484 29.2255 294.048 28.6522C294.621 28.0688 295.053 27.4302 295.345 26.7362L297.895 27.566C297.543 28.5416 296.964 29.4417 296.16 30.2664C295.365 31.0912 294.37 31.755 293.173 32.2579C291.986 32.7507 290.618 32.9971 289.069 32.9971Z" fill="white"/>
<path d="M312.238 9.34148V11.6799H301.18V9.34148H312.238ZM304.635 3.78965H307.335V26.4646C307.335 27.4302 307.501 28.1895 307.833 28.7427C308.165 29.2858 308.598 29.673 309.131 29.9044C309.664 30.1256 310.232 30.2363 310.835 30.2363C311.187 30.2363 311.489 30.2162 311.741 30.1759C311.992 30.1256 312.213 30.0753 312.404 30.0251L312.978 32.454C312.716 32.5546 312.394 32.6451 312.012 32.7255C311.63 32.8161 311.157 32.8613 310.594 32.8613C309.608 32.8613 308.658 32.6451 307.743 32.2126C306.838 31.7801 306.093 31.1364 305.51 30.2815C304.927 29.4266 304.635 28.3655 304.635 27.0983V3.78965Z" fill="white"/>
<path d="M318.933 41.2041C318.4 41.2041 317.902 41.1539 317.44 41.0533C316.977 40.9527 316.61 40.8421 316.339 40.7214L317.063 38.3528C317.978 38.6344 318.793 38.735 319.507 38.6545C320.221 38.5841 320.854 38.2623 321.408 37.689C321.961 37.1258 322.454 36.2608 322.886 35.0941L323.731 32.7406L315.207 9.34148H318.119L324.998 28.969H325.209L332.089 9.34148H335.001L325.194 36.1803C324.782 37.2967 324.274 38.2271 323.671 38.9713C323.067 39.7257 322.368 40.2839 321.574 40.6459C320.789 41.0181 319.909 41.2041 318.933 41.2041Z" fill="white"/>
<path d="M48.2542 49.6794L54.6911 67.8335H54.8722L61.3091 49.6794H63.2804L55.7874 70.2775H53.7759L46.2829 49.6794H48.2542Z" fill="white"/>
<path d="M67.8417 49.6794V70.2775H65.9609V49.6794H67.8417Z" fill="white"/>
<path d="M71.2213 51.3691V49.6794H86.1569V51.3691H79.6295V70.2775H77.7487V51.3691H71.2213Z" fill="white"/>
<path d="M107.842 54.8289C107.728 53.6823 107.221 52.7705 106.323 52.0932C105.424 51.416 104.295 51.0774 102.933 51.0774C101.975 51.0774 101.13 51.2417 100.399 51.5702C99.6748 51.8988 99.1049 52.3547 98.6892 52.9381C98.2802 53.5147 98.0757 54.1718 98.0757 54.9094C98.0757 55.4525 98.193 55.9286 98.4277 56.3376C98.6624 56.7466 98.9775 57.0986 99.3731 57.3936C99.7754 57.6819 100.218 57.93 100.701 58.1379C101.19 58.3457 101.683 58.5201 102.179 58.6609L104.352 59.2845C105.009 59.4655 105.666 59.6968 106.323 59.9784C106.98 60.2601 107.58 60.6154 108.123 61.0446C108.673 61.467 109.112 61.9866 109.441 62.6035C109.776 63.2137 109.944 63.9479 109.944 64.8061C109.944 65.9058 109.659 66.8948 109.089 67.7731C108.519 68.6515 107.701 69.3488 106.635 69.8651C105.569 70.3747 104.291 70.6295 102.803 70.6295C101.401 70.6295 100.184 70.3982 99.1518 69.9355C98.1192 69.4662 97.3079 68.8191 96.7179 67.9944C96.1278 67.1697 95.7959 66.2142 95.7222 65.128H97.6532C97.7203 65.9393 97.9885 66.6266 98.4578 67.1898C98.9272 67.753 99.5374 68.1821 100.288 68.4772C101.039 68.7655 101.877 68.9096 102.803 68.9096C103.829 68.9096 104.741 68.7387 105.538 68.3967C106.343 68.048 106.973 67.5653 107.429 66.9484C107.892 66.3248 108.123 65.6007 108.123 64.7759C108.123 64.0786 107.942 63.4953 107.58 63.0259C107.218 62.5498 106.712 62.1509 106.061 61.829C105.418 61.5072 104.67 61.2222 103.819 60.9741L101.354 60.25C99.7385 59.7672 98.4847 59.1001 97.5929 58.2485C96.7011 57.397 96.2552 56.3107 96.2552 54.9898C96.2552 53.8835 96.5502 52.9113 97.1403 52.0731C97.737 51.2283 98.5417 50.5712 99.5541 50.1018C100.573 49.6258 101.717 49.3877 102.984 49.3877C104.264 49.3877 105.398 49.6224 106.383 50.0918C107.369 50.5611 108.15 51.2082 108.727 52.0329C109.31 52.8509 109.622 53.7829 109.662 54.8289H107.842Z" fill="white"/>
<path d="M119.333 54.8289V56.3879H111.96V54.8289H119.333ZM114.264 51.1277H116.064V66.2444C116.064 66.8881 116.175 67.3943 116.396 67.7631C116.617 68.1251 116.905 68.3833 117.261 68.5375C117.616 68.685 117.995 68.7588 118.397 68.7588C118.632 68.7588 118.833 68.7454 119.001 68.7185C119.168 68.685 119.316 68.6515 119.443 68.618L119.826 70.2373C119.651 70.3043 119.437 70.3646 119.182 70.4183C118.927 70.4786 118.612 70.5088 118.236 70.5088C117.579 70.5088 116.946 70.3646 116.336 70.0763C115.732 69.788 115.236 69.3589 114.847 68.7889C114.458 68.219 114.264 67.5116 114.264 66.6668V51.1277Z" fill="white"/>
<path d="M132.365 64.3736V54.8289H134.155V70.2775H132.365V67.7128H132.224C131.862 68.504 131.289 69.1644 130.504 69.6941C129.72 70.2171 128.761 70.4786 127.628 70.4786C126.642 70.4786 125.767 70.2641 125.003 69.8349C124.239 69.3991 123.638 68.7621 123.203 67.924C122.767 67.0859 122.549 66.0566 122.549 64.8363V54.8289H124.339V64.7257C124.339 65.9326 124.694 66.9048 125.405 67.6424C126.116 68.3732 127.028 68.7387 128.141 68.7387C128.838 68.7387 129.509 68.571 130.152 68.2358C130.796 67.9005 131.326 67.411 131.742 66.7674C132.157 66.117 132.365 65.3191 132.365 64.3736Z" fill="white"/>
<path d="M143.607 70.5993C142.34 70.5993 141.23 70.2641 140.278 69.5936C139.326 68.923 138.582 67.9877 138.045 66.7875C137.516 65.5873 137.251 64.1892 137.251 62.5934C137.251 61.0043 137.516 59.613 138.045 58.4195C138.582 57.2193 139.329 56.2873 140.288 55.6235C141.247 54.953 142.363 54.6177 143.637 54.6177C144.576 54.6177 145.357 54.7853 145.981 55.1206C146.604 55.4491 147.104 55.8582 147.479 56.3476C147.855 56.8371 148.147 57.3132 148.354 57.7758H148.515V49.6794H150.316V70.2775H148.566V67.411H148.354C148.147 67.8804 147.852 68.3632 147.469 68.8594C147.087 69.3488 146.581 69.7612 145.951 70.0964C145.327 70.4317 144.546 70.5993 143.607 70.5993ZM143.818 68.9599C144.818 68.9599 145.669 68.6884 146.373 68.1453C147.077 67.5954 147.614 66.8411 147.982 65.8823C148.358 64.9167 148.546 63.8104 148.546 62.5633C148.546 61.3295 148.361 60.2399 147.992 59.2945C147.624 58.3424 147.087 57.5981 146.383 57.0617C145.679 56.5186 144.824 56.247 143.818 56.247C142.786 56.247 141.914 56.5287 141.203 57.0919C140.499 57.6484 139.963 58.4027 139.594 59.3549C139.232 60.307 139.051 61.3765 139.051 62.5633C139.051 63.7635 139.236 64.8463 139.604 65.8119C139.973 66.7774 140.51 67.5452 141.214 68.1151C141.924 68.6783 142.793 68.9599 143.818 68.9599Z" fill="white"/>
<path d="M160.811 70.5993C159.37 70.5993 158.122 70.2641 157.07 69.5936C156.017 68.9163 155.202 67.981 154.626 66.7875C154.056 65.5873 153.771 64.206 153.771 62.6437C153.771 61.0881 154.056 59.7069 154.626 58.5C155.202 57.2863 155.997 56.3376 157.009 55.6536C158.028 54.963 159.205 54.6177 160.54 54.6177C161.378 54.6177 162.186 54.7719 162.963 55.0804C163.741 55.3821 164.439 55.8481 165.055 56.4784C165.679 57.1019 166.172 57.8898 166.534 58.8419C166.896 59.7873 167.077 60.9071 167.077 62.2012V63.0863H155.008V61.5072H165.247C165.247 60.5148 165.045 59.6231 164.643 58.8319C164.247 58.034 163.694 57.4037 162.984 56.941C162.28 56.4784 161.465 56.247 160.54 56.247C159.561 56.247 158.699 56.5085 157.955 57.0315C157.21 57.5545 156.627 58.2452 156.205 59.1034C155.789 59.9617 155.578 60.9004 155.571 61.9196V62.865C155.571 64.092 155.782 65.1648 156.205 66.0834C156.634 66.9953 157.241 67.7027 158.025 68.2056C158.81 68.7085 159.738 68.9599 160.811 68.9599C161.542 68.9599 162.182 68.8459 162.732 68.618C163.289 68.39 163.755 68.0849 164.13 67.7027C164.512 67.3138 164.801 66.8881 164.995 66.4254L166.695 66.9786C166.46 67.629 166.075 68.2291 165.538 68.7789C165.009 69.3287 164.345 69.7712 163.547 70.1065C162.756 70.4351 161.844 70.5993 160.811 70.5993Z" fill="white"/>
<path d="M171.963 60.6221V70.2775H170.172V54.8289H171.912V57.2528H172.073C172.435 56.4616 172.999 55.828 173.763 55.3519C174.534 54.8691 175.486 54.6278 176.619 54.6278C177.659 54.6278 178.571 54.8457 179.355 55.2815C180.146 55.7106 180.76 56.3443 181.196 57.1824C181.638 58.0205 181.859 59.0498 181.859 60.2701V70.2775H180.069V60.3807C180.069 59.1135 179.714 58.1111 179.003 57.3735C178.299 56.6359 177.354 56.2672 176.167 56.2672C175.356 56.2672 174.635 56.4415 174.004 56.7902C173.374 57.1388 172.875 57.6417 172.506 58.2988C172.144 58.9492 171.963 59.7236 171.963 60.6221Z" fill="white"/>
<path d="M191.809 54.8289V56.3879H184.437V54.8289H191.809ZM186.74 51.1277H188.54V66.2444C188.54 66.8881 188.651 67.3943 188.872 67.7631C189.094 68.1251 189.382 68.3833 189.737 68.5375C190.093 68.685 190.472 68.7588 190.874 68.7588C191.109 68.7588 191.31 68.7454 191.477 68.7185C191.645 68.685 191.792 68.6515 191.92 68.618L192.302 70.2373C192.128 70.3043 191.913 70.3646 191.658 70.4183C191.404 70.4786 191.088 70.5088 190.713 70.5088C190.056 70.5088 189.422 70.3646 188.812 70.0763C188.209 69.788 187.712 69.3589 187.324 68.7889C186.935 68.219 186.74 67.5116 186.74 66.6668V51.1277Z" fill="white"/>
<path d="M202.513 70.2775V49.6794H209.463C210.804 49.6794 211.921 49.9141 212.813 50.3834C213.711 50.8528 214.385 51.4931 214.834 52.3044C215.283 53.1158 215.508 54.0377 215.508 55.0703C215.508 55.9286 215.364 56.6628 215.075 57.2729C214.787 57.8831 214.395 58.3759 213.899 58.7514C213.403 59.1269 212.849 59.3984 212.239 59.5661V59.727C212.903 59.7739 213.547 60.0086 214.17 60.431C214.794 60.8468 215.307 61.4301 215.709 62.1811C216.111 62.932 216.313 63.8305 216.313 64.8765C216.313 65.9158 216.081 66.8445 215.619 67.6625C215.156 68.4738 214.445 69.1141 213.486 69.5835C212.534 70.0462 211.321 70.2775 209.846 70.2775H202.513ZM204.394 68.5878H209.846C211.435 68.5878 212.608 68.2358 213.366 67.5317C214.13 66.8277 214.512 65.9426 214.512 64.8765C214.512 64.092 214.321 63.3813 213.939 62.7443C213.563 62.1006 213.03 61.591 212.34 61.2155C211.656 60.84 210.851 60.6523 209.926 60.6523H204.394V68.5878ZM204.394 58.9827H209.634C210.446 58.9827 211.156 58.8151 211.767 58.4798C212.377 58.1446 212.853 57.6819 213.195 57.0919C213.537 56.5018 213.708 55.828 213.708 55.0703C213.708 53.9774 213.352 53.0889 212.642 52.405C211.931 51.7144 210.871 51.3691 209.463 51.3691H204.394V58.9827Z" fill="white"/>
<path d="M219.629 70.2775V54.8289H221.369V57.2025H221.5C221.808 56.4247 222.345 55.7978 223.109 55.3217C223.88 54.839 224.752 54.5976 225.724 54.5976C225.872 54.5976 226.036 54.6009 226.217 54.6076C226.398 54.6144 226.549 54.6211 226.67 54.6278V56.4482C226.589 56.4348 226.448 56.4147 226.247 56.3879C226.046 56.361 225.828 56.3476 225.593 56.3476C224.789 56.3476 224.071 56.5186 223.441 56.8606C222.818 57.1958 222.325 57.6618 221.963 58.2586C221.601 58.8553 221.42 59.5359 221.42 60.3003V70.2775H219.629Z" fill="white"/>
<path d="M233.19 70.6295C232.258 70.6295 231.406 70.4485 230.635 70.0864C229.864 69.7176 229.25 69.1879 228.795 68.4973C228.339 67.7999 228.111 66.9551 228.111 65.9627C228.111 65.1984 228.255 64.5547 228.543 64.0317C228.831 63.5087 229.24 63.0796 229.77 62.7443C230.3 62.409 230.927 62.1442 231.651 61.9497C232.375 61.7553 233.173 61.6044 234.045 61.4971C234.91 61.3899 235.64 61.296 236.237 61.2155C236.841 61.1351 237.3 61.0077 237.615 60.8333C237.93 60.659 238.088 60.3774 238.088 59.9885V59.6264C238.088 58.5737 237.773 57.7456 237.142 57.1422C236.519 56.532 235.62 56.2269 234.447 56.2269C233.334 56.2269 232.425 56.4717 231.721 56.9611C231.024 57.4506 230.535 58.0273 230.253 58.6911L228.553 58.0775C228.902 57.2327 229.385 56.5588 230.001 56.056C230.618 55.5464 231.309 55.1809 232.073 54.9597C232.838 54.7317 233.612 54.6177 234.397 54.6177C234.987 54.6177 235.6 54.6948 236.237 54.849C236.881 55.0033 237.478 55.2715 238.027 55.6536C238.577 56.0291 239.023 56.5555 239.365 57.2327C239.707 57.9032 239.878 58.7548 239.878 59.7873V70.2775H238.088V67.8335H237.977C237.763 68.2894 237.444 68.732 237.022 69.1611C236.599 69.5902 236.07 69.9422 235.433 70.2171C234.796 70.492 234.048 70.6295 233.19 70.6295ZM233.431 68.9901C234.383 68.9901 235.208 68.7789 235.905 68.3565C236.603 67.934 237.139 67.3742 237.515 66.6768C237.897 65.9728 238.088 65.1984 238.088 64.3535V62.1207C237.954 62.2481 237.729 62.3621 237.414 62.4627C237.106 62.5633 236.747 62.6538 236.338 62.7342C235.935 62.808 235.533 62.8717 235.131 62.9253C234.729 62.979 234.366 63.0259 234.045 63.0661C233.173 63.1734 232.429 63.3411 231.812 63.569C231.195 63.797 230.722 64.1121 230.394 64.5144C230.065 64.91 229.901 65.4196 229.901 66.0432C229.901 66.9819 230.236 67.7094 230.907 68.2257C231.577 68.7353 232.419 68.9901 233.431 68.9901Z" fill="white"/>
<path d="M245.581 60.6221V70.2775H243.791V54.8289H245.531V57.2528H245.692C246.054 56.4616 246.617 55.828 247.381 55.3519C248.152 54.8691 249.105 54.6278 250.238 54.6278C251.277 54.6278 252.189 54.8457 252.973 55.2815C253.765 55.7106 254.378 56.3443 254.814 57.1824C255.256 58.0205 255.478 59.0498 255.478 60.2701V70.2775H253.687V60.3807C253.687 59.1135 253.332 58.1111 252.621 57.3735C251.917 56.6359 250.972 56.2672 249.785 56.2672C248.974 56.2672 248.253 56.4415 247.623 56.7902C246.992 57.1388 246.493 57.6417 246.124 58.2988C245.762 58.9492 245.581 59.7236 245.581 60.6221Z" fill="white"/>
<path d="M265.377 70.5993C263.996 70.5993 262.792 70.254 261.766 69.5634C260.747 68.8728 259.956 67.9273 259.393 66.7271C258.83 65.5269 258.548 64.1591 258.548 62.6236C258.548 61.0747 258.833 59.6968 259.403 58.4899C259.98 57.283 260.777 56.3376 261.797 55.6536C262.816 54.963 263.999 54.6177 265.347 54.6177C266.38 54.6177 267.315 54.8189 268.153 55.2212C268.991 55.6168 269.682 56.1766 270.225 56.9008C270.775 57.6182 271.12 58.4564 271.261 59.4152H269.451C269.263 58.5435 268.81 57.7993 268.093 57.1824C267.382 56.5588 266.477 56.247 265.377 56.247C264.392 56.247 263.52 56.5153 262.762 57.0517C262.004 57.5814 261.411 58.3223 260.982 59.2744C260.56 60.2198 260.348 61.3161 260.348 62.5633C260.348 63.8171 260.556 64.9268 260.972 65.8923C261.388 66.8512 261.971 67.6021 262.722 68.1453C263.48 68.6884 264.365 68.9599 265.377 68.9599C266.061 68.9599 266.685 68.8325 267.248 68.5777C267.818 68.3162 268.294 67.9475 268.676 67.4714C269.065 66.9953 269.326 66.4288 269.461 65.7716H271.271C271.137 66.7037 270.805 67.5351 270.275 68.2659C269.752 68.9901 269.072 69.56 268.234 69.9758C267.402 70.3915 266.45 70.5993 265.377 70.5993Z" fill="white"/>
<path d="M276.049 60.6221V70.2775H274.258V49.6794H276.049V57.2528H276.209C276.572 56.4549 277.131 55.8179 277.889 55.3419C278.653 54.8658 279.619 54.6278 280.786 54.6278C281.832 54.6278 282.75 54.8423 283.541 55.2715C284.333 55.7006 284.95 56.3342 285.392 57.1724C285.835 58.0105 286.056 59.0431 286.056 60.2701V70.2775H284.256V60.3807C284.256 59.1068 283.9 58.1044 283.189 57.3735C282.485 56.6359 281.533 56.2672 280.333 56.2672C279.508 56.2672 278.774 56.4415 278.13 56.7902C277.487 57.1388 276.977 57.6417 276.602 58.2988C276.233 58.9492 276.049 59.7236 276.049 60.6221Z" fill="white"/>
<path d="M26.5867 11.2725H23.7504C23.5392 10.2165 23.157 9.2409 22.6039 8.34577C22.0607 7.44058 21.3768 6.65105 20.5521 5.97719C19.7274 5.30333 18.792 4.78033 17.746 4.4082C16.7 4.03606 15.5685 3.85 14.3515 3.85C12.4004 3.85 10.6202 4.35791 9.01093 5.37373C7.41176 6.38956 6.12941 7.88312 5.16387 9.85442C4.20839 11.8157 3.73065 14.2194 3.73065 17.0658C3.73065 19.9322 4.20839 22.346 5.16387 24.3073C6.12941 26.2685 7.41176 27.7571 9.01093 28.7729C10.6202 29.7786 12.4004 30.2815 14.3515 30.2815C15.5685 30.2815 16.7 30.0955 17.746 29.7233C18.792 29.3512 19.7274 28.8332 20.5521 28.1694C21.3768 27.4956 22.0607 26.706 22.6039 25.8008C23.157 24.8956 23.5392 23.915 23.7504 22.859H26.5867C26.3352 24.2771 25.8625 25.5997 25.1686 26.8267C24.4846 28.0437 23.6096 29.1098 22.5435 30.0251C21.4875 30.9403 20.2705 31.6544 18.8926 32.1673C17.5147 32.6803 16.001 32.9367 14.3515 32.9367C11.7567 32.9367 9.45346 32.288 7.44193 30.9906C5.4304 29.6831 3.85135 27.8425 2.70477 25.4689C1.56826 23.0953 1 20.2943 1 17.0658C1 13.8373 1.56826 11.0362 2.70477 8.66259C3.85135 6.28898 5.4304 4.45346 7.44193 3.15602C9.45346 1.84852 11.7567 1.19477 14.3515 1.19477C16.001 1.19477 17.5147 1.45124 18.8926 1.96419C20.2705 2.46707 21.4875 3.18116 22.5435 4.10647C23.6096 5.02171 24.4846 6.08783 25.1686 7.3048C25.8625 8.52178 26.3352 9.84436 26.5867 11.2725Z" stroke="white"/>
<path d="M40.3874 32.9971C38.3859 32.9971 36.6157 32.4892 35.0769 31.4734C33.5481 30.4575 32.3513 29.0545 31.4863 27.2642C30.6214 25.4639 30.1889 23.387 30.1889 21.0335C30.1889 18.6599 30.6214 16.5729 31.4863 14.7726C32.3513 12.9622 33.5481 11.5542 35.0769 10.5484C36.6157 9.53257 38.3859 9.02466 40.3874 9.02466C42.3888 9.02466 44.1539 9.53257 45.6827 10.5484C47.2115 11.5642 48.4083 12.9723 49.2733 14.7726C50.1483 16.5729 50.5858 18.6599 50.5858 21.0335C50.5858 23.387 50.1533 25.4639 49.2884 27.2642C48.4234 29.0545 47.2215 30.4575 45.6827 31.4734C44.1539 32.4892 42.3888 32.9971 40.3874 32.9971ZM40.3874 30.538C41.9966 30.538 43.3594 30.1055 44.4758 29.2406C45.5922 28.3756 46.437 27.224 47.0103 25.7858C47.5937 24.3475 47.8853 22.7634 47.8853 21.0335C47.8853 19.3036 47.5937 17.7145 47.0103 16.2662C46.437 14.8179 45.5922 13.6562 44.4758 12.7812C43.3594 11.9062 41.9966 11.4687 40.3874 11.4687C38.7882 11.4687 37.4254 11.9062 36.2989 12.7812C35.1825 13.6562 34.3326 14.8179 33.7493 16.2662C33.176 17.7145 32.8894 19.3036 32.8894 21.0335C32.8894 22.7634 33.176 24.3475 33.7493 25.7858C34.3326 27.224 35.1825 28.3756 36.2989 29.2406C37.4153 30.1055 38.7781 30.538 40.3874 30.538Z" stroke="white"/>
<path d="M55.2064 32.5143V9.34148H57.8163V12.9019H58.0577C58.5204 11.705 59.2898 10.7646 60.3659 10.0807C61.4522 9.38674 62.7546 9.03975 64.2733 9.03975C65.8725 9.03975 67.185 9.41691 68.2109 10.1712C69.2468 10.9155 70.0213 11.9414 70.5342 13.2489H70.7304C71.2534 11.9615 72.1032 10.9406 73.28 10.1863C74.4668 9.42194 75.905 9.03975 77.5947 9.03975C79.747 9.03975 81.4468 9.71864 82.6939 11.0764C83.9411 12.4242 84.5647 14.3955 84.5647 16.9903V32.5143H81.8793V16.9903C81.8793 15.1598 81.4116 13.787 80.4762 12.8717C79.5409 11.9565 78.3088 11.4988 76.78 11.4988C75.0099 11.4988 73.6471 12.042 72.6916 13.1282C71.7361 14.2144 71.2584 15.5923 71.2584 17.2619V32.5143H68.5126V16.7489C68.5126 15.1799 68.0751 13.9127 67.2001 12.9471C66.3251 11.9816 65.093 11.4988 63.5039 11.4988C62.4378 11.4988 61.4773 11.7603 60.6224 12.2833C59.7776 12.8063 59.1087 13.5355 58.6159 14.4709C58.1331 15.3962 57.8918 16.4623 57.8918 17.6692V32.5143H55.2064Z" stroke="white"/>
<path d="M90.3997 41.2041V9.34148H93.0096V13.7618H93.3264C93.6483 13.0678 94.0908 12.3588 94.6541 11.6346C95.2173 10.9004 95.9616 10.2819 96.8869 9.77899C97.8222 9.2761 98.999 9.02466 100.417 9.02466C102.328 9.02466 103.998 9.52755 105.426 10.5333C106.864 11.529 107.98 12.927 108.775 14.7274C109.58 16.5176 109.982 18.6046 109.982 20.9882C109.982 23.382 109.58 25.479 108.775 27.2793C107.98 29.0796 106.864 30.4827 105.426 31.4884C103.998 32.4942 102.338 32.9971 100.447 32.9971C99.0493 32.9971 97.8775 32.7457 96.9321 32.2428C95.9968 31.7399 95.2374 31.1213 94.6541 30.3871C94.0808 29.6429 93.6382 28.9187 93.3264 28.2147H93.0851V41.2041H90.3997ZM93.0549 20.943C93.0549 22.8137 93.3315 24.4732 93.8846 25.9215C94.4479 27.3598 95.2525 28.4913 96.2985 29.316C97.3545 30.1307 98.6319 30.538 100.13 30.538C101.669 30.538 102.967 30.1156 104.023 29.2707C105.089 28.4158 105.899 27.2642 106.452 25.8159C107.015 24.3676 107.297 22.7433 107.297 20.943C107.297 19.1628 107.02 17.5586 106.467 16.1304C105.924 14.7022 105.119 13.5707 104.053 12.7359C102.987 11.8911 101.679 11.4687 100.13 11.4687C98.6218 11.4687 97.3394 11.876 96.2834 12.6907C95.2273 13.4953 94.4227 14.6117 93.8696 16.0399C93.3264 17.458 93.0549 19.0924 93.0549 20.943Z" stroke="white"/>
<path d="M129.323 23.6586V9.34148H132.008V32.5143H129.323V28.6673H129.112C128.569 29.8541 127.709 30.8448 126.532 31.6393C125.355 32.4238 123.917 32.8161 122.217 32.8161C120.739 32.8161 119.426 32.4942 118.28 31.8505C117.133 31.1968 116.233 30.2413 115.579 28.9841C114.926 27.7269 114.599 26.183 114.599 24.3525V9.34148H117.284V24.1866C117.284 25.997 117.817 27.4553 118.883 28.5617C119.949 29.658 121.317 30.2061 122.987 30.2061C124.033 30.2061 125.039 29.9547 126.004 29.4518C126.97 28.9489 127.764 28.2147 128.388 27.2491C129.011 26.2735 129.323 25.0767 129.323 23.6586Z" stroke="white"/>
<path d="M146.971 9.34148V11.6799H135.912V9.34148H146.971ZM139.367 3.78965H142.068V26.4646C142.068 27.4302 142.234 28.1895 142.566 28.7427C142.897 29.2858 143.33 29.673 143.863 29.9044C144.396 30.1256 144.964 30.2363 145.568 30.2363C145.92 30.2363 146.222 30.2162 146.473 30.1759C146.724 30.1256 146.946 30.0753 147.137 30.0251L147.71 32.454C147.449 32.5546 147.127 32.6451 146.745 32.7255C146.362 32.8161 145.89 32.8613 145.326 32.8613C144.341 32.8613 143.39 32.6451 142.475 32.2126C141.57 31.7801 140.826 31.1364 140.242 30.2815C139.659 29.4266 139.367 28.3655 139.367 27.0983V3.78965Z" stroke="white"/>
<path d="M160.915 32.9971C158.752 32.9971 156.882 32.4942 155.303 31.4884C153.724 30.4726 152.502 29.0696 151.637 27.2793C150.782 25.479 150.354 23.4071 150.354 21.0637C150.354 18.7303 150.782 16.6584 151.637 14.848C152.502 13.0276 153.693 11.6045 155.212 10.5786C156.741 9.54263 158.506 9.02466 160.507 9.02466C161.765 9.02466 162.977 9.25599 164.143 9.71864C165.31 10.1712 166.356 10.8702 167.281 11.8157C168.217 12.751 168.956 13.9328 169.499 15.361C170.042 16.7791 170.314 18.4587 170.314 20.3999V21.7275H152.21V19.3589H167.568C167.568 17.8704 167.266 16.5327 166.663 15.3459C166.069 14.149 165.24 13.2036 164.173 12.5096C163.117 11.8157 161.895 11.4687 160.507 11.4687C159.039 11.4687 157.747 11.8609 156.63 12.6454C155.514 13.4299 154.639 14.4659 154.005 15.7532C153.382 17.0406 153.065 18.4487 153.055 19.9775V21.3956C153.055 23.2361 153.372 24.8454 154.005 26.2233C154.649 27.5911 155.559 28.6522 156.736 29.4065C157.913 30.1608 159.306 30.538 160.915 30.538C162.011 30.538 162.972 30.367 163.796 30.0251C164.631 29.6831 165.33 29.2255 165.893 28.6522C166.467 28.0688 166.899 27.4302 167.191 26.7362L169.74 27.566C169.388 28.5416 168.81 29.4417 168.005 30.2664C167.211 31.0912 166.215 31.755 165.018 32.2579C163.832 32.7507 162.464 32.9971 160.915 32.9971Z" stroke="white"/>
<path d="M174.957 32.5143V9.34148H177.567V12.9019H177.763C178.226 11.7352 179.03 10.7948 180.177 10.0807C181.333 9.35656 182.641 8.99449 184.099 8.99449C184.321 8.99449 184.567 8.99952 184.839 9.00958C185.11 9.01963 185.336 9.02969 185.517 9.03975V11.7704C185.397 11.7503 185.186 11.7201 184.884 11.6799C184.582 11.6397 184.255 11.6195 183.903 11.6195C182.696 11.6195 181.62 11.876 180.675 12.389C179.739 12.8918 179 13.5908 178.457 14.486C177.914 15.3811 177.642 16.402 177.642 17.5485V32.5143H174.957Z" stroke="white"/>
<path d="M216.834 9.34148C216.663 7.62162 215.903 6.25378 214.556 5.23795C213.208 4.22213 211.513 3.71422 209.472 3.71422C208.033 3.71422 206.766 3.96063 205.67 4.45346C204.584 4.94628 203.729 5.6302 203.105 6.50522C202.492 7.37018 202.185 8.35583 202.185 9.46217C202.185 10.2768 202.361 10.9909 202.713 11.6045C203.065 12.218 203.538 12.746 204.131 13.1885C204.734 13.621 205.398 13.9931 206.122 14.3049C206.857 14.6167 207.596 14.8782 208.34 15.0894L211.599 16.0248C212.584 16.2963 213.57 16.6433 214.556 17.0658C215.541 17.4882 216.442 18.0212 217.256 18.6649C218.081 19.2986 218.74 20.078 219.233 21.0033C219.735 21.9186 219.987 23.0199 219.987 24.3073C219.987 25.9567 219.559 27.4402 218.705 28.7578C217.85 30.0753 216.623 31.1213 215.023 31.8958C213.424 32.6602 211.508 33.0424 209.275 33.0424C207.173 33.0424 205.348 32.6954 203.799 32.0014C202.25 31.2973 201.033 30.3268 200.148 29.0897C199.263 27.8526 198.765 26.4194 198.655 24.79H201.551C201.652 26.007 202.054 27.0379 202.758 27.8828C203.462 28.7276 204.377 29.3713 205.504 29.8138C206.63 30.2463 207.887 30.4626 209.275 30.4626C210.814 30.4626 212.182 30.2061 213.379 29.6932C214.586 29.1702 215.531 28.446 216.215 27.5207C216.909 26.5853 217.256 25.4991 217.256 24.262C217.256 23.216 216.985 22.341 216.442 21.637C215.898 20.9229 215.139 20.3244 214.163 19.8417C213.198 19.3589 212.077 18.9315 210.799 18.5593L207.103 17.4731C204.679 16.7489 202.798 15.7482 201.461 14.4709C200.123 13.1936 199.454 11.5642 199.454 9.58286C199.454 7.92335 199.897 6.46499 200.782 5.20778C201.677 3.94052 202.884 2.95487 204.403 2.25083C205.931 1.53673 207.646 1.17969 209.547 1.17969C211.468 1.17969 213.168 1.53171 214.646 2.23574C216.125 2.93978 217.296 3.91034 218.161 5.14743C219.036 6.37447 219.504 7.77248 219.564 9.34148H216.834Z" stroke="white"/>
<path d="M233.95 32.9971C231.948 32.9971 230.178 32.4892 228.639 31.4734C227.11 30.4575 225.914 29.0545 225.049 27.2642C224.184 25.4639 223.751 23.387 223.751 21.0335C223.751 18.6599 224.184 16.5729 225.049 14.7726C225.914 12.9622 227.11 11.5542 228.639 10.5484C230.178 9.53257 231.948 9.02466 233.95 9.02466C235.951 9.02466 237.716 9.53257 239.245 10.5484C240.774 11.5642 241.971 12.9723 242.836 14.7726C243.711 16.5729 244.148 18.6599 244.148 21.0335C244.148 23.387 243.716 25.4639 242.851 27.2642C241.986 29.0545 240.784 30.4575 239.245 31.4734C237.716 32.4892 235.951 32.9971 233.95 32.9971ZM233.95 30.538C235.559 30.538 236.922 30.1055 238.038 29.2406C239.155 28.3756 239.999 27.224 240.573 25.7858C241.156 24.3475 241.448 22.7634 241.448 21.0335C241.448 19.3036 241.156 17.7145 240.573 16.2662C239.999 14.8179 239.155 13.6562 238.038 12.7812C236.922 11.9062 235.559 11.4687 233.95 11.4687C232.351 11.4687 230.988 11.9062 229.861 12.7812C228.745 13.6562 227.895 14.8179 227.312 16.2662C226.738 17.7145 226.452 19.3036 226.452 21.0335C226.452 22.7634 226.738 24.3475 227.312 25.7858C227.895 27.224 228.745 28.3756 229.861 29.2406C230.978 30.1055 232.34 30.538 233.95 30.538Z" stroke="white"/>
<path d="M257.821 32.9971C255.749 32.9971 253.943 32.4791 252.405 31.4432C250.876 30.4072 249.689 28.9891 248.844 27.1888C247.999 25.3885 247.577 23.3367 247.577 21.0335C247.577 18.7102 248.004 16.6433 248.859 14.833C249.724 13.0226 250.921 11.6045 252.45 10.5786C253.979 9.54263 255.754 9.02466 257.775 9.02466C259.324 9.02466 260.727 9.32639 261.984 9.92985C263.242 10.5233 264.278 11.3631 265.092 12.4493C265.917 13.5255 266.435 14.7827 266.646 16.2209H263.931C263.649 14.9134 262.97 13.797 261.894 12.8717C260.828 11.9364 259.47 11.4687 257.821 11.4687C256.342 11.4687 255.035 11.871 253.898 12.6756C252.762 13.4701 251.871 14.5815 251.228 16.0097C250.594 17.4278 250.277 19.0723 250.277 20.943C250.277 22.8238 250.589 24.4883 251.213 25.9366C251.836 27.3749 252.711 28.5013 253.838 29.316C254.974 30.1307 256.302 30.538 257.821 30.538C258.846 30.538 259.782 30.3469 260.627 29.9647C261.482 29.5725 262.196 29.0193 262.769 28.3052C263.352 27.5911 263.745 26.7412 263.946 25.7556H266.661C266.46 27.1536 265.962 28.4007 265.168 29.497C264.383 30.5833 263.362 31.4382 262.105 32.0617C260.858 32.6853 259.43 32.9971 257.821 32.9971Z" stroke="white"/>
<path d="M271.172 32.5143V9.34148H273.873V32.5143H271.172ZM272.545 5.35865C271.992 5.35865 271.519 5.17258 271.127 4.80045C270.735 4.41826 270.539 3.96063 270.539 3.42757C270.539 2.89452 270.735 2.44193 271.127 2.06979C271.519 1.6876 271.992 1.4965 272.545 1.4965C273.098 1.4965 273.571 1.6876 273.963 2.06979C274.356 2.44193 274.552 2.89452 274.552 3.42757C274.552 3.96063 274.356 4.41826 273.963 4.80045C273.571 5.17258 273.098 5.35865 272.545 5.35865Z" stroke="white"/>
<path d="M289.069 32.9971C286.907 32.9971 285.036 32.4942 283.457 31.4884C281.878 30.4726 280.656 29.0696 279.791 27.2793C278.936 25.479 278.509 23.4071 278.509 21.0637C278.509 18.7303 278.936 16.6584 279.791 14.848C280.656 13.0276 281.848 11.6045 283.366 10.5786C284.895 9.54263 286.66 9.02466 288.662 9.02466C289.919 9.02466 291.131 9.25599 292.298 9.71864C293.464 10.1712 294.51 10.8702 295.436 11.8157C296.371 12.751 297.11 13.9328 297.653 15.361C298.196 16.7791 298.468 18.4587 298.468 20.3999V21.7275H280.364V19.3589H295.722C295.722 17.8704 295.421 16.5327 294.817 15.3459C294.224 14.149 293.394 13.2036 292.328 12.5096C291.272 11.8157 290.05 11.4687 288.662 11.4687C287.193 11.4687 285.901 11.8609 284.785 12.6454C283.668 13.4299 282.793 14.4659 282.159 15.7532C281.536 17.0406 281.219 18.4487 281.209 19.9775V21.3956C281.209 23.2361 281.526 24.8454 282.159 26.2233C282.803 27.5911 283.713 28.6522 284.89 29.4065C286.067 30.1608 287.46 30.538 289.069 30.538C290.165 30.538 291.126 30.367 291.951 30.0251C292.785 29.6831 293.484 29.2255 294.048 28.6522C294.621 28.0688 295.053 27.4302 295.345 26.7362L297.895 27.566C297.543 28.5416 296.964 29.4417 296.16 30.2664C295.365 31.0912 294.37 31.755 293.173 32.2579C291.986 32.7507 290.618 32.9971 289.069 32.9971Z" stroke="white"/>
<path d="M312.238 9.34148V11.6799H301.18V9.34148H312.238ZM304.635 3.78965H307.335V26.4646C307.335 27.4302 307.501 28.1895 307.833 28.7427C308.165 29.2858 308.598 29.673 309.131 29.9044C309.664 30.1256 310.232 30.2363 310.835 30.2363C311.187 30.2363 311.489 30.2162 311.741 30.1759C311.992 30.1256 312.213 30.0753 312.404 30.0251L312.978 32.454C312.716 32.5546 312.394 32.6451 312.012 32.7255C311.63 32.8161 311.157 32.8613 310.594 32.8613C309.608 32.8613 308.658 32.6451 307.743 32.2126C306.838 31.7801 306.093 31.1364 305.51 30.2815C304.927 29.4266 304.635 28.3655 304.635 27.0983V3.78965Z" stroke="white"/>
<path d="M318.933 41.2041C318.4 41.2041 317.902 41.1539 317.44 41.0533C316.977 40.9527 316.61 40.8421 316.339 40.7214L317.063 38.3528C317.978 38.6344 318.793 38.735 319.507 38.6545C320.221 38.5841 320.854 38.2623 321.408 37.689C321.961 37.1258 322.454 36.2608 322.886 35.0941L323.731 32.7406L315.207 9.34148H318.119L324.998 28.969H325.209L332.089 9.34148H335.001L325.194 36.1803C324.782 37.2967 324.274 38.2271 323.671 38.9713C323.067 39.7257 322.368 40.2839 321.574 40.6459C320.789 41.0181 319.909 41.2041 318.933 41.2041Z" stroke="white"/>
<path d="M48.2542 49.6794L54.6911 67.8335H54.8722L61.3091 49.6794H63.2804L55.7874 70.2775H53.7759L46.2829 49.6794H48.2542Z" stroke="white"/>
<path d="M67.8417 49.6794V70.2775H65.9609V49.6794H67.8417Z" stroke="white"/>
<path d="M71.2213 51.3691V49.6794H86.1569V51.3691H79.6295V70.2775H77.7487V51.3691H71.2213Z" stroke="white"/>
<path d="M107.842 54.8289C107.728 53.6823 107.221 52.7705 106.323 52.0932C105.424 51.416 104.295 51.0774 102.933 51.0774C101.975 51.0774 101.13 51.2417 100.399 51.5702C99.6748 51.8988 99.1049 52.3547 98.6892 52.9381C98.2802 53.5147 98.0757 54.1718 98.0757 54.9094C98.0757 55.4525 98.193 55.9286 98.4277 56.3376C98.6624 56.7466 98.9775 57.0986 99.3731 57.3936C99.7754 57.6819 100.218 57.93 100.701 58.1379C101.19 58.3457 101.683 58.5201 102.179 58.6609L104.352 59.2845C105.009 59.4655 105.666 59.6968 106.323 59.9784C106.98 60.2601 107.58 60.6154 108.123 61.0446C108.673 61.467 109.112 61.9866 109.441 62.6035C109.776 63.2137 109.944 63.9479 109.944 64.8061C109.944 65.9058 109.659 66.8948 109.089 67.7731C108.519 68.6515 107.701 69.3488 106.635 69.8651C105.569 70.3747 104.291 70.6295 102.803 70.6295C101.401 70.6295 100.184 70.3982 99.1518 69.9355C98.1192 69.4662 97.3079 68.8191 96.7179 67.9944C96.1278 67.1697 95.7959 66.2142 95.7222 65.128H97.6532C97.7203 65.9393 97.9885 66.6266 98.4578 67.1898C98.9272 67.753 99.5374 68.1821 100.288 68.4772C101.039 68.7655 101.877 68.9096 102.803 68.9096C103.829 68.9096 104.741 68.7387 105.538 68.3967C106.343 68.048 106.973 67.5653 107.429 66.9484C107.892 66.3248 108.123 65.6007 108.123 64.7759C108.123 64.0786 107.942 63.4953 107.58 63.0259C107.218 62.5498 106.712 62.1509 106.061 61.829C105.418 61.5072 104.67 61.2222 103.819 60.9741L101.354 60.25C99.7385 59.7672 98.4847 59.1001 97.5929 58.2485C96.7011 57.397 96.2552 56.3107 96.2552 54.9898C96.2552 53.8835 96.5502 52.9113 97.1403 52.0731C97.737 51.2283 98.5417 50.5712 99.5541 50.1018C100.573 49.6258 101.717 49.3877 102.984 49.3877C104.264 49.3877 105.398 49.6224 106.383 50.0918C107.369 50.5611 108.15 51.2082 108.727 52.0329C109.31 52.8509 109.622 53.7829 109.662 54.8289H107.842Z" stroke="white"/>
<path d="M119.333 54.8289V56.3879H111.96V54.8289H119.333ZM114.264 51.1277H116.064V66.2444C116.064 66.8881 116.175 67.3943 116.396 67.7631C116.617 68.1251 116.905 68.3833 117.261 68.5375C117.616 68.685 117.995 68.7588 118.397 68.7588C118.632 68.7588 118.833 68.7454 119.001 68.7185C119.168 68.685 119.316 68.6515 119.443 68.618L119.826 70.2373C119.651 70.3043 119.437 70.3646 119.182 70.4183C118.927 70.4786 118.612 70.5088 118.236 70.5088C117.579 70.5088 116.946 70.3646 116.336 70.0763C115.732 69.788 115.236 69.3589 114.847 68.7889C114.458 68.219 114.264 67.5116 114.264 66.6668V51.1277Z" stroke="white"/>
<path d="M132.365 64.3736V54.8289H134.155V70.2775H132.365V67.7128H132.224C131.862 68.504 131.289 69.1644 130.504 69.6941C129.72 70.2171 128.761 70.4786 127.628 70.4786C126.642 70.4786 125.767 70.2641 125.003 69.8349C124.239 69.3991 123.638 68.7621 123.203 67.924C122.767 67.0859 122.549 66.0566 122.549 64.8363V54.8289H124.339V64.7257C124.339 65.9326 124.694 66.9048 125.405 67.6424C126.116 68.3732 127.028 68.7387 128.141 68.7387C128.838 68.7387 129.509 68.571 130.152 68.2358C130.796 67.9005 131.326 67.411 131.742 66.7674C132.157 66.117 132.365 65.3191 132.365 64.3736Z" stroke="white"/>
<path d="M143.607 70.5993C142.34 70.5993 141.23 70.2641 140.278 69.5936C139.326 68.923 138.582 67.9877 138.045 66.7875C137.516 65.5873 137.251 64.1892 137.251 62.5934C137.251 61.0043 137.516 59.613 138.045 58.4195C138.582 57.2193 139.329 56.2873 140.288 55.6235C141.247 54.953 142.363 54.6177 143.637 54.6177C144.576 54.6177 145.357 54.7853 145.981 55.1206C146.604 55.4491 147.104 55.8582 147.479 56.3476C147.855 56.8371 148.147 57.3132 148.354 57.7758H148.515V49.6794H150.316V70.2775H148.566V67.411H148.354C148.147 67.8804 147.852 68.3632 147.469 68.8594C147.087 69.3488 146.581 69.7612 145.951 70.0964C145.327 70.4317 144.546 70.5993 143.607 70.5993ZM143.818 68.9599C144.818 68.9599 145.669 68.6884 146.373 68.1453C147.077 67.5954 147.614 66.8411 147.982 65.8823C148.358 64.9167 148.546 63.8104 148.546 62.5633C148.546 61.3295 148.361 60.2399 147.992 59.2945C147.624 58.3424 147.087 57.5981 146.383 57.0617C145.679 56.5186 144.824 56.247 143.818 56.247C142.786 56.247 141.914 56.5287 141.203 57.0919C140.499 57.6484 139.963 58.4027 139.594 59.3549C139.232 60.307 139.051 61.3765 139.051 62.5633C139.051 63.7635 139.236 64.8463 139.604 65.8119C139.973 66.7774 140.51 67.5452 141.214 68.1151C141.924 68.6783 142.793 68.9599 143.818 68.9599Z" stroke="white"/>
<path d="M160.811 70.5993C159.37 70.5993 158.122 70.2641 157.07 69.5936C156.017 68.9163 155.202 67.981 154.626 66.7875C154.056 65.5873 153.771 64.206 153.771 62.6437C153.771 61.0881 154.056 59.7069 154.626 58.5C155.202 57.2863 155.997 56.3376 157.009 55.6536C158.028 54.963 159.205 54.6177 160.54 54.6177C161.378 54.6177 162.186 54.7719 162.963 55.0804C163.741 55.3821 164.439 55.8481 165.055 56.4784C165.679 57.1019 166.172 57.8898 166.534 58.8419C166.896 59.7873 167.077 60.9071 167.077 62.2012V63.0863H155.008V61.5072H165.247C165.247 60.5148 165.045 59.6231 164.643 58.8319C164.247 58.034 163.694 57.4037 162.984 56.941C162.28 56.4784 161.465 56.247 160.54 56.247C159.561 56.247 158.699 56.5085 157.955 57.0315C157.21 57.5545 156.627 58.2452 156.205 59.1034C155.789 59.9617 155.578 60.9004 155.571 61.9196V62.865C155.571 64.092 155.782 65.1648 156.205 66.0834C156.634 66.9953 157.241 67.7027 158.025 68.2056C158.81 68.7085 159.738 68.9599 160.811 68.9599C161.542 68.9599 162.182 68.8459 162.732 68.618C163.289 68.39 163.755 68.0849 164.13 67.7027C164.512 67.3138 164.801 66.8881 164.995 66.4254L166.695 66.9786C166.46 67.629 166.075 68.2291 165.538 68.7789C165.009 69.3287 164.345 69.7712 163.547 70.1065C162.756 70.4351 161.844 70.5993 160.811 70.5993Z" stroke="white"/>
<path d="M171.963 60.6221V70.2775H170.172V54.8289H171.912V57.2528H172.073C172.435 56.4616 172.999 55.828 173.763 55.3519C174.534 54.8691 175.486 54.6278 176.619 54.6278C177.659 54.6278 178.571 54.8457 179.355 55.2815C180.146 55.7106 180.76 56.3443 181.196 57.1824C181.638 58.0205 181.859 59.0498 181.859 60.2701V70.2775H180.069V60.3807C180.069 59.1135 179.714 58.1111 179.003 57.3735C178.299 56.6359 177.354 56.2672 176.167 56.2672C175.356 56.2672 174.635 56.4415 174.004 56.7902C173.374 57.1388 172.875 57.6417 172.506 58.2988C172.144 58.9492 171.963 59.7236 171.963 60.6221Z" stroke="white"/>
<path d="M191.809 54.8289V56.3879H184.437V54.8289H191.809ZM186.74 51.1277H188.54V66.2444C188.54 66.8881 188.651 67.3943 188.872 67.7631C189.094 68.1251 189.382 68.3833 189.737 68.5375C190.093 68.685 190.472 68.7588 190.874 68.7588C191.109 68.7588 191.31 68.7454 191.477 68.7185C191.645 68.685 191.792 68.6515 191.92 68.618L192.302 70.2373C192.128 70.3043 191.913 70.3646 191.658 70.4183C191.404 70.4786 191.088 70.5088 190.713 70.5088C190.056 70.5088 189.422 70.3646 188.812 70.0763C188.209 69.788 187.712 69.3589 187.324 68.7889C186.935 68.219 186.74 67.5116 186.74 66.6668V51.1277Z" stroke="white"/>
<path d="M202.513 70.2775V49.6794H209.463C210.804 49.6794 211.921 49.9141 212.813 50.3834C213.711 50.8528 214.385 51.4931 214.834 52.3044C215.283 53.1158 215.508 54.0377 215.508 55.0703C215.508 55.9286 215.364 56.6628 215.075 57.2729C214.787 57.8831 214.395 58.3759 213.899 58.7514C213.403 59.1269 212.849 59.3984 212.239 59.5661V59.727C212.903 59.7739 213.547 60.0086 214.17 60.431C214.794 60.8468 215.307 61.4301 215.709 62.1811C216.111 62.932 216.313 63.8305 216.313 64.8765C216.313 65.9158 216.081 66.8445 215.619 67.6625C215.156 68.4738 214.445 69.1141 213.486 69.5835C212.534 70.0462 211.321 70.2775 209.846 70.2775H202.513ZM204.394 68.5878H209.846C211.435 68.5878 212.608 68.2358 213.366 67.5317C214.13 66.8277 214.512 65.9426 214.512 64.8765C214.512 64.092 214.321 63.3813 213.939 62.7443C213.563 62.1006 213.03 61.591 212.34 61.2155C211.656 60.84 210.851 60.6523 209.926 60.6523H204.394V68.5878ZM204.394 58.9827H209.634C210.446 58.9827 211.156 58.8151 211.767 58.4798C212.377 58.1446 212.853 57.6819 213.195 57.0919C213.537 56.5018 213.708 55.828 213.708 55.0703C213.708 53.9774 213.352 53.0889 212.642 52.405C211.931 51.7144 210.871 51.3691 209.463 51.3691H204.394V58.9827Z" stroke="white"/>
<path d="M219.629 70.2775V54.8289H221.369V57.2025H221.5C221.808 56.4247 222.345 55.7978 223.109 55.3217C223.88 54.839 224.752 54.5976 225.724 54.5976C225.872 54.5976 226.036 54.6009 226.217 54.6076C226.398 54.6144 226.549 54.6211 226.67 54.6278V56.4482C226.589 56.4348 226.448 56.4147 226.247 56.3879C226.046 56.361 225.828 56.3476 225.593 56.3476C224.789 56.3476 224.071 56.5186 223.441 56.8606C222.818 57.1958 222.325 57.6618 221.963 58.2586C221.601 58.8553 221.42 59.5359 221.42 60.3003V70.2775H219.629Z" stroke="white"/>
<path d="M233.19 70.6295C232.258 70.6295 231.406 70.4485 230.635 70.0864C229.864 69.7176 229.25 69.1879 228.795 68.4973C228.339 67.7999 228.111 66.9551 228.111 65.9627C228.111 65.1984 228.255 64.5547 228.543 64.0317C228.831 63.5087 229.24 63.0796 229.77 62.7443C230.3 62.409 230.927 62.1442 231.651 61.9497C232.375 61.7553 233.173 61.6044 234.045 61.4971C234.91 61.3899 235.64 61.296 236.237 61.2155C236.841 61.1351 237.3 61.0077 237.615 60.8333C237.93 60.659 238.088 60.3774 238.088 59.9885V59.6264C238.088 58.5737 237.773 57.7456 237.142 57.1422C236.519 56.532 235.62 56.2269 234.447 56.2269C233.334 56.2269 232.425 56.4717 231.721 56.9611C231.024 57.4506 230.535 58.0273 230.253 58.6911L228.553 58.0775C228.902 57.2327 229.385 56.5588 230.001 56.056C230.618 55.5464 231.309 55.1809 232.073 54.9597C232.838 54.7317 233.612 54.6177 234.397 54.6177C234.987 54.6177 235.6 54.6948 236.237 54.849C236.881 55.0033 237.478 55.2715 238.027 55.6536C238.577 56.0291 239.023 56.5555 239.365 57.2327C239.707 57.9032 239.878 58.7548 239.878 59.7873V70.2775H238.088V67.8335H237.977C237.763 68.2894 237.444 68.732 237.022 69.1611C236.599 69.5902 236.07 69.9422 235.433 70.2171C234.796 70.492 234.048 70.6295 233.19 70.6295ZM233.431 68.9901C234.383 68.9901 235.208 68.7789 235.905 68.3565C236.603 67.934 237.139 67.3742 237.515 66.6768C237.897 65.9728 238.088 65.1984 238.088 64.3535V62.1207C237.954 62.2481 237.729 62.3621 237.414 62.4627C237.106 62.5633 236.747 62.6538 236.338 62.7342C235.935 62.808 235.533 62.8717 235.131 62.9253C234.729 62.979 234.366 63.0259 234.045 63.0661C233.173 63.1734 232.429 63.3411 231.812 63.569C231.195 63.797 230.722 64.1121 230.394 64.5144C230.065 64.91 229.901 65.4196 229.901 66.0432C229.901 66.9819 230.236 67.7094 230.907 68.2257C231.577 68.7353 232.419 68.9901 233.431 68.9901Z" stroke="white"/>
<path d="M245.581 60.6221V70.2775H243.791V54.8289H245.531V57.2528H245.692C246.054 56.4616 246.617 55.828 247.381 55.3519C248.152 54.8691 249.105 54.6278 250.238 54.6278C251.277 54.6278 252.189 54.8457 252.973 55.2815C253.765 55.7106 254.378 56.3443 254.814 57.1824C255.256 58.0205 255.478 59.0498 255.478 60.2701V70.2775H253.687V60.3807C253.687 59.1135 253.332 58.1111 252.621 57.3735C251.917 56.6359 250.972 56.2672 249.785 56.2672C248.974 56.2672 248.253 56.4415 247.623 56.7902C246.992 57.1388 246.493 57.6417 246.124 58.2988C245.762 58.9492 245.581 59.7236 245.581 60.6221Z" stroke="white"/>
<path d="M265.377 70.5993C263.996 70.5993 262.792 70.254 261.766 69.5634C260.747 68.8728 259.956 67.9273 259.393 66.7271C258.83 65.5269 258.548 64.1591 258.548 62.6236C258.548 61.0747 258.833 59.6968 259.403 58.4899C259.98 57.283 260.777 56.3376 261.797 55.6536C262.816 54.963 263.999 54.6177 265.347 54.6177C266.38 54.6177 267.315 54.8189 268.153 55.2212C268.991 55.6168 269.682 56.1766 270.225 56.9008C270.775 57.6182 271.12 58.4564 271.261 59.4152H269.451C269.263 58.5435 268.81 57.7993 268.093 57.1824C267.382 56.5588 266.477 56.247 265.377 56.247C264.392 56.247 263.52 56.5153 262.762 57.0517C262.004 57.5814 261.411 58.3223 260.982 59.2744C260.56 60.2198 260.348 61.3161 260.348 62.5633C260.348 63.8171 260.556 64.9268 260.972 65.8923C261.388 66.8512 261.971 67.6021 262.722 68.1453C263.48 68.6884 264.365 68.9599 265.377 68.9599C266.061 68.9599 266.685 68.8325 267.248 68.5777C267.818 68.3162 268.294 67.9475 268.676 67.4714C269.065 66.9953 269.326 66.4288 269.461 65.7716H271.271C271.137 66.7037 270.805 67.5351 270.275 68.2659C269.752 68.9901 269.072 69.56 268.234 69.9758C267.402 70.3915 266.45 70.5993 265.377 70.5993Z" stroke="white"/>
<path d="M276.049 60.6221V70.2775H274.258V49.6794H276.049V57.2528H276.209C276.572 56.4549 277.131 55.8179 277.889 55.3419C278.653 54.8658 279.619 54.6278 280.786 54.6278C281.832 54.6278 282.75 54.8423 283.541 55.2715C284.333 55.7006 284.95 56.3342 285.392 57.1724C285.835 58.0105 286.056 59.0431 286.056 60.2701V70.2775H284.256V60.3807C284.256 59.1068 283.9 58.1044 283.189 57.3735C282.485 56.6359 281.533 56.2672 280.333 56.2672C279.508 56.2672 278.774 56.4415 278.13 56.7902C277.487 57.1388 276.977 57.6417 276.602 58.2988C276.233 58.9492 276.049 59.7236 276.049 60.6221Z" stroke="white"/>
<path d="M364.471 0H321.987L364.471 41.3035V0Z" fill="#EA8913"/>
<path d="M385.713 41.3035V0H366.831V22.9464L385.713 41.3035Z" fill="white"/>
<path d="M406.954 41.3035V0H388.072V22.9464L406.954 41.3035Z" fill="#0A5616"/>
</svg>
